# xmcd
# 
# Track frame offsets:
#     150
#     20002
#     35055
#     57232
#     79687
#     97107
#     113992
#     129970
#     149395
#     168370
# 
# Disc length: 2506
# 
# Revision: 5
# Processed by: cddbd v1.5.2PL0 Copyright (c) Steve Scherf et al.
# Submitted via: BonkEnc v1.0.8
# 
DISCID=8709c80a
DTITLE=松任谷由実 - Delight Slight Light KISS
DYEAR=1988
DGENRE=JPop
TTITLE0=リフレインが叫んでる
TTITLE1=Nobody Else
TTITLE2=ふってあげる
TTITLE3=誕生日おめでとう
TTITLE4=Home Townへようこそ
TTITLE5=とこしえにGood Night（夜明けの色）
TTITLE6=恋はNo-Return
TTITLE7=幸せはあなたへの復讐
TTITLE8=吹雪の中を
TTITLE9=September Blue Moon
EXTD=YEAR: 1988
EXTT0=
EXTT1=
EXTT2=
EXTT3=
EXTT4=
EXTT5=
EXTT6=
EXTT7=
EXTT8=
EXTT9=
PLAYORDER=
